<svg width="20" height="20" viewBox="0 0 20 20" fill="none" xmlns="http://www.w3.org/2000/svg">
<path d="M9.5625 0.225098H10.2375L10.8125 0.325098L11.0625 0.400098L11.8125 0.750098L12.525 1.3001L13.025 1.9376L13.375 2.6376L13.575 3.4126L13.6 4.2376L13.575 4.2626L13.55 4.6126L13.45 5.0126C13.36 5.30593 13.2433 5.5726 13.1 5.8126C12.8783 6.1826 12.6075 6.50343 12.2875 6.7751C11.9792 7.03343 11.625 7.24593 11.225 7.4126V7.6126L11.2625 7.6501C11.6742 7.79676 12.0242 8.0051 12.3125 8.2751L12.75 8.0251L12.725 7.6876L12.75 7.6626L12.775 7.1876L12.95 6.6126C13.13 6.20093 13.3758 5.8551 13.6875 5.5751C13.9408 5.3451 14.2408 5.16176 14.5875 5.0251L15.0125 4.9001L15.3125 4.8751L15.3375 4.8501H15.8625L16.3875 4.9501L16.9875 5.2001C17.2692 5.3601 17.515 5.55593 17.725 5.7876C17.985 6.06926 18.185 6.41093 18.325 6.8126L18.45 7.3876V8.0376L18.375 8.4376L18.1 9.1126C17.9167 9.42926 17.6875 9.7001 17.4125 9.9251C17.1242 10.1701 16.7742 10.3534 16.3625 10.4751L15.7875 10.5751H15.4125L14.8375 10.4751L14.5375 10.3751L14.3125 10.2501H14.2125L13.575 10.6376C13.555 10.7176 13.5633 10.7676 13.6 10.7876V11.3876L13.575 11.4126V11.5876L13.5 11.9876L13.35 12.4626C13.44 12.6059 13.5692 12.7101 13.7375 12.7751C13.9775 12.6318 14.2525 12.5234 14.5625 12.4501L14.9625 12.3751L15.6125 12.3501L15.6375 12.3751H15.8875L15.9125 12.4001L16.1875 12.4251L16.8375 12.6251C17.3458 12.8418 17.775 13.1376 18.125 13.5126C18.47 13.8676 18.7367 14.3009 18.925 14.8126L19.05 15.2376L19.1 15.4876V15.6626L19.125 15.6876V16.4376L19 17.0876C18.9117 17.3909 18.795 17.6659 18.65 17.9126C18.4483 18.2609 18.2025 18.5651 17.9125 18.8251C17.5658 19.1451 17.1492 19.3951 16.6625 19.5751L15.9625 19.7501H15.7625L15.7375 19.7751H15.1125L14.4375 19.6501L13.8875 19.4501C13.4108 19.2268 13.0067 18.9309 12.675 18.5626C12.37 18.2343 12.1283 17.8426 11.95 17.3876L11.75 16.6626L11.7 16.0376L11.725 16.0126L11.75 15.4626L11.9 14.9126L11.7625 14.8001H11.6875L11.55 14.8501L11.325 15.9876C11.2683 16.1643 11.1725 16.3018 11.0375 16.4001C10.9308 16.4851 10.7975 16.5434 10.6375 16.5751H9.3125C9.07084 16.5168 8.89167 16.3959 8.775 16.2126L8.65 15.9126V15.8126L8.425 14.8751L8.2375 14.8001L8.1 14.8751L8.25 15.4626L8.3 16.1376L8.275 16.1626V16.4876L8.2 16.9126L8 17.5126C7.77167 18.0343 7.45917 18.4718 7.0625 18.8251C6.69917 19.1618 6.2575 19.4201 5.7375 19.6001L5.1125 19.7501H4.9125L4.8875 19.7751H4.2625L4.2375 19.7501H4.0375L3.6625 19.6751L3.0875 19.4751C2.58917 19.2484 2.16833 18.9443 1.825 18.5626C1.47333 18.1809 1.20667 17.7143 1.025 17.1626L0.875 16.4376V15.6876L0.975 15.1376L1.175 14.5626C1.38 14.1093 1.65083 13.7218 1.9875 13.4001C2.31417 13.0768 2.70583 12.8184 3.1625 12.6251L3.8125 12.4251H3.9375L4.1125 12.3751H4.3625L4.3875 12.3501H4.7625L4.7875 12.3751H5.0375L5.0625 12.4001L5.3375 12.4251L5.7125 12.5251L5.9875 12.6501H6.0625C6.10917 12.6284 6.11333 12.6076 6.075 12.5876L6.05 12.4751L4.8875 12.1751L4.575 11.9376L4.45 11.7376L4.375 11.3876L4.4 11.3626V10.1876C4.45167 9.98926 4.5475 9.8351 4.6875 9.7251L5.0375 9.5501L6.025 9.4001L6.1 9.1876L5.525 8.2126L5.475 8.0376V7.7876C5.52667 7.5476 5.63917 7.36843 5.8125 7.2501L6.6875 6.5501L6.8625 6.4751L7.15 6.4376C6.83167 6.0976 6.58167 5.68926 6.4 5.2126L6.3 4.9126L6.2 4.4126L6.175 3.7126L6.2 3.6876V3.4626L6.275 3.0626L6.5 2.4126C6.73834 1.89926 7.05917 1.4701 7.4625 1.1251C7.7525 0.873431 8.08584 0.665098 8.4625 0.500098L8.9875 0.325098L9.5625 0.225098ZM9.75 1.0251L9.725 1.0501L9.35 1.0751L8.775 1.2501L8.275 1.5251L7.825 1.8751L7.475 2.3251L7.25 2.7251L7.1 3.1251L7 3.6251V4.2751L7.125 4.8501C7.25834 5.21676 7.44167 5.54176 7.675 5.8251C8.05834 6.30843 8.61667 6.6251 9.35 6.7751L9.375 6.8251V8.2251L9.05 8.3001L8.6 8.4751V7.8001L8.275 7.9751H8.2L7.125 7.2751L6.975 7.3501L6.3 7.9251L6.4 8.1501L7 9.1501L6.6 10.1251L5.275 10.3501L5.2 10.3751V11.4251L6.625 11.7751L7.025 12.7501L6.275 13.7001L5.7 13.3751L5.325 13.2501L4.925 13.1751H4.25L3.85 13.2501C3.36667 13.3834 2.96667 13.6001 2.65 13.9001C2.38333 14.1334 2.16667 14.4084 2 14.7251L1.8 15.2001L1.675 15.8251V16.3251L1.775 16.8751C1.90833 17.2918 2.1 17.6501 2.35 17.9501C2.58333 18.2168 2.86667 18.4418 3.2 18.6251L3.825 18.8751L4.175 18.9501H4.4L4.425 18.9751L5 18.9501L5.65 18.7751C5.95 18.6584 6.21667 18.5001 6.45 18.3001C6.7 18.0834 6.91667 17.8251 7.1 17.5251L7.375 16.8751L7.475 16.3501V15.8001L7.45 15.7751L7.425 15.4751C7.35834 15.1418 7.24167 14.8584 7.075 14.6251L8.125 13.9001L8.275 13.9251L9.1 14.3001L9.15 14.3751V14.4751L9.225 14.7001L9.45 15.7751H10.325L10.35 15.7501H10.55L10.825 14.3001L11.825 13.8751L12.925 14.6251L12.7 15.0501L12.575 15.4751L12.55 15.7751L12.525 15.8001V16.3751L12.625 16.8751C12.7417 17.2751 12.925 17.6251 13.175 17.9251C13.4083 18.2084 13.7 18.4418 14.05 18.6251L14.675 18.8751L15.025 18.9501H15.25L15.275 18.9751L15.85 18.9501L16.5 18.7751C16.8 18.6584 17.0667 18.5001 17.3 18.3001C17.55 18.0834 17.7667 17.8251 17.95 17.5251L18.225 16.8751L18.325 16.3251L18.3 15.6251L18.175 15.1251C18.0417 14.7418 17.85 14.4168 17.6 14.1501C17.1667 13.6334 16.5583 13.3084 15.775 13.1751H15.1L14.7 13.2501C14.2667 13.3668 13.9083 13.5501 13.625 13.8001L12.35 12.6501C12.5 12.4168 12.6167 12.1584 12.7 11.8751L12.775 11.5251V11.3001L12.8 11.2751L12.775 10.6751L12.675 10.2001L14.3 9.2751C14.55 9.5251 14.8917 9.68343 15.325 9.7501H15.9L16.15 9.7001C16.4667 9.6001 16.7417 9.4501 16.975 9.2501C17.1583 9.08343 17.3083 8.89176 17.425 8.6751L17.575 8.3001L17.65 7.9251V7.5251L17.625 7.5001L17.6 7.2251C17.5167 6.89176 17.375 6.61676 17.175 6.4001C16.9917 6.16676 16.7667 5.98343 16.5 5.8501L16.05 5.7001L15.725 5.6751L15.7 5.6501L15.3 5.6751L14.9 5.7751C14.6667 5.85843 14.4667 5.9751 14.3 6.1251C14.1 6.2751 13.9417 6.45843 13.825 6.6751L13.6 7.2251L13.55 7.5001V7.9501L13.6 8.2251L13.675 8.4251L12.175 9.2751L12.075 9.1751C11.875 8.94176 11.6417 8.74176 11.375 8.5751C11.125 8.40843 10.825 8.3001 10.475 8.2501L10.425 8.2251V6.7751C10.675 6.74176 10.9083 6.6751 11.125 6.5751C11.4083 6.44176 11.6667 6.26676 11.9 6.0501C12.1833 5.78343 12.4083 5.45843 12.575 5.0751L12.725 4.6251L12.775 4.3751V4.1501L12.8 4.1251L12.775 3.5251L12.6 2.8751C12.4667 2.55843 12.3 2.28343 12.1 2.0501C11.8 1.68343 11.425 1.40843 10.975 1.2251L10.325 1.0501L9.75 1.0251Z" fill="white"/>
<path d="M9.6373 2.1001H10.1373L10.5373 2.2001C10.8606 2.32676 11.1231 2.51426 11.3248 2.7626C11.4798 2.94926 11.5965 3.17426 11.6748 3.4376L11.7248 3.6626V4.1876C11.6348 4.66426 11.439 5.0351 11.1373 5.3001C10.964 5.4601 10.7556 5.5851 10.5123 5.6751L10.0623 5.7751H9.7123L9.2123 5.6501L8.9123 5.5001L8.4498 5.0876C8.29147 4.89593 8.1748 4.6626 8.0998 4.3876L8.0498 4.1126V3.7626L8.1248 3.3876L8.2748 3.0376C8.40814 2.80426 8.57897 2.60843 8.7873 2.4501C9.01397 2.27676 9.2973 2.1601 9.6373 2.1001Z" fill="white" stroke="white"/>
<path d="M9.6623 9.25H10.1373L10.5373 9.35C10.849 9.47167 11.1031 9.65083 11.2998 9.8875C11.4698 10.0758 11.5948 10.3092 11.6748 10.5875L11.7248 10.8125V11.3375C11.6348 11.8142 11.439 12.185 11.1373 12.45C10.9323 12.645 10.674 12.7867 10.3623 12.875L10.0873 12.925H9.6873L9.3373 12.85L9.0373 12.725C8.80564 12.5983 8.6098 12.4358 8.4498 12.2375C8.28814 12.0492 8.17147 11.8158 8.0998 11.5375L8.0498 11.2625V10.9125L8.1248 10.5375L8.2748 10.1875C8.40314 9.96583 8.56564 9.77833 8.7623 9.625L9.1873 9.375L9.6623 9.25Z" fill="white" stroke="white"/>
<path d="M4.38711 14.2251H4.76211L5.26211 14.3501C5.54878 14.4718 5.78628 14.6426 5.97461 14.8626C6.12461 15.0293 6.24128 15.2293 6.32461 15.4626L6.39961 15.7626L6.42461 16.1626L6.34961 16.5876L6.14961 17.0376L5.71211 17.5251C5.53044 17.6684 5.31378 17.7768 5.06211 17.8501L4.83711 17.9001H4.31211C3.80044 17.8034 3.41294 17.5826 3.14961 17.2376C3.01294 17.0743 2.90461 16.8826 2.82461 16.6626L2.74961 16.3626L2.72461 16.0376L2.74961 16.0126L2.77461 15.6376L2.87461 15.3376C2.99294 15.0726 3.15544 14.8518 3.36211 14.6751C3.51211 14.5418 3.68711 14.4334 3.88711 14.3501L4.38711 14.2251Z" fill="white" stroke="white"/>
<path d="M15.2377 14.2251H15.6127L16.1127 14.3501C16.3994 14.4718 16.6369 14.6426 16.8252 14.8626L17.1252 15.3376L17.2252 15.6376L17.2752 16.0876L17.2502 16.1126L17.2252 16.4876L17.1252 16.7876C17.0002 17.0793 16.821 17.3168 16.5877 17.5001C16.4044 17.6584 16.1794 17.7751 15.9127 17.8501L15.6877 17.9001H15.1627C14.6377 17.8001 14.2419 17.5709 13.9752 17.2126C13.8319 17.0393 13.7235 16.8309 13.6502 16.5876L13.6002 16.3876L13.5752 15.9626L13.6502 15.5376L13.8252 15.1376C13.9369 14.9493 14.0744 14.7868 14.2377 14.6501L14.7377 14.3501L15.2377 14.2251Z" fill="white" stroke="white"/>
</svg>
